# xmcd
#
# Track frame offsets: 
#        150
#        14448
#        34249
#        50179
#        67731
#        84463
#        102477
#        120046
#        139147
#        156492
#        177906
#        205476
#
# Disc length: 3128 seconds
#
# Revision: 0
# Processed by: cddbd v1.5.2PL0 Copyright (c) Steve Scherf et al.
# Submitted via: ExactAudioCopy v1.0b1
#
DISCID=a50c360c
DTITLE=David Hallyday 2 - David Hallyday 2
DYEAR=2007
DGENRE=Folk
TTITLE0=Steve McQueen
TTITLE1=Tendre est la nuit
TTITLE2=Dernier message vers la terre
TTITLE3=Père de personne
TTITLE4=sous les vagues
TTITLE5=Dis-moi
TTITLE6=Je ne me reconnais pas
TTITLE7=Une nuit près de toi
TTITLE8=Tu mens
TTITLE9=Plus vent de toi
TTITLE10=Rien à faire
TTITLE11=data
EXTD=
EXTT0=
EXTT1=
EXTT2=
EXTT3=
EXTT4=
EXTT5=
EXTT6=
EXTT7=
EXTT8=
EXTT9=
EXTT10=
EXTT11=
PLAYORDER=
